# xmcd CD database file
#
# Track frame offsets:
#	182
#	18695
#	45837
#	64612
#	86135
#	116480
#	134400
#	158450
#
# Disc length: 2315 seconds
#
# Revision: 0
# Processed by: cddbd v1.4PL0 Copyright (c) Steve Scherf et al.
# Submitted via: Feurio! 1.65 - http://www.feurio.com
#
DISCID=5d090908
DTITLE=Dr. John - City Lights
DYEAR=1978
DGENRE=Blues
TTITLE0=Dance The Night Away With You
TTITLE1=Street Side
TTITLE2=Wild Honey
TTITLE3=Rain
TTITLE4=Snake Eyes
TTITLE5=Fire Of Love
TTITLE6=Sonata - He's A Hero
TTITLE7=City Lights
EXTD=ARD  A&M Records 390732-2 1978
EXTT0=
EXTT1=
EXTT2=
EXTT3=
EXTT4=
EXTT5=
EXTT6=
EXTT7=
PLAYORDER=
